<svg xmlns="http://www.w3.org/2000/svg" version="1.1" xmlns:xlink="http://www.w3.org/1999/xlink" width="1000" height="1000"><g clip-path="url(#SvgjsClipPath1130)"><rect width="1000" height="1000" fill="#ffffff"></rect><g transform="matrix(0.8,0,0,0.8,100,100)"><svg xmlns="http://www.w3.org/2000/svg" version="1.1" xmlns:xlink="http://www.w3.org/1999/xlink" width="1000" height="1000"><svg class="img-fluid" id="outputsvg" xmlns="http://www.w3.org/2000/svg" style="transform-origin: 50% 50%; cursor: move; transition: transform 200ms ease-in-out;" width="1000" height="1000" viewBox="0 0 10000 10000">
    <g fill="#324158" style="transform: none;">
        <g style="transform: none;">
            <path id="p7LM44tb4" d="M1181 9479 c-43 -25 -55 -38 -80 -83 l-21 -37 0 -2547 c0 -2158 2 -2568 15 -2684 54 -510 178 -941 400 -1393 197 -399 422 -717 740 -1044 305 -314 627 -552 1015 -754 307 -159 719 -304 1004 -352 50 -9 123 -22 161 -30 304 -62 778 -69 1160 -19 386 51 823 187 1189 371 226 113 591 358 796 533 716 613 1223 1498 1375 2403 65 392 65 367 65 3060 0 2386 0 2449 -19 2485 -22 43 -53 73 -98 96 -29 15 -352 16 -3850 15 -3782 0 -3818 -1 -3852 -20z m3339 -484 c0 -3 -7 -51 -15 -106 -23 -150 -88 -401 -155 -594 -56 -162 -193 -481 -230 -535 -9 -14 -47 -79 -85 -145 -198 -348 -529 -721 -876 -987 -358 -275 -817 -497 -1264 -612 -93 -24 -200 -47 -236 -51 l-66 -7 -6 108 c-4 59 -7 743 -7 1521 l0 1413 1470 0 c809 0 1470 -2 1470 -5z m3980 -1378 c0 -761 -3 -1446 -7 -1522 l-6 -137 -61 6 c-109 12 -377 87 -561 156 -240 91 -446 191 -638 312 -684 429 -1182 1063 -1459 1853 -78 222 -167 592 -168 698 0 16 76 17 1450 17 l1450 0 0 -1383z m-3693 -1954 c-2 -2 -532 -2 -1178 -1 -692 2 -1166 7 -1154 12 11 5 83 36 160 69 601 256 1148 686 1571 1232 223 287 487 768 581 1057 18 53 18 22 21 -1155 1 -666 1 -1212 -1 -1214z m592 2188 c205 -487 491 -913 860 -1282 273 -272 474 -429 797 -621 178 -107 515 -268 558 -268 10 0 14 -4 11 -10 -4 -7 -402 -10 -1161 -10 l-1154 0 0 1208 c1 1176 1 1206 19 1157 10 -27 41 -106 70 -174z m-589 -3861 l0 -1180 -28 0 c-67 0 -349 41 -477 70 -894 201 -1623 706 -2141 1485 -135 202 -285 488 -354 674 -15 42 -33 88 -39 104 l-11 27 1525 0 1525 0 0 -1180z m3500 1176 c0 -16 -81 -213 -131 -319 -265 -561 -700 -1087 -1179 -1423 -126 -89 -342 -220 -460 -279 -299 -150 -683 -265 -1070 -319 -63 -9 -125 -19 -137 -21 l-23 -5 0 1185 0 1185 1500 0 c825 0 1500 -2 1500 -4z m182 -863 c-2 -38 -12 -136 -22 -219 -81 -629 -309 -1180 -708 -1708 -320 -423 -709 -755 -1175 -999 -265 -139 -513 -227 -837 -297 -112 -24 -395 -70 -430 -70 -6 0 -10 245 -10 649 l0 648 103 7 c138 9 268 30 477 77 523 117 922 296 1389 621 454 318 901 806 1172 1282 24 42 43 76 44 76 1 0 -1 -30 -3 -67z m-6706 -279 c266 -382 571 -695 951 -977 265 -196 650 -400 983 -520 256 -92 639 -179 915 -207 61 -6 125 -14 143 -16 l32 -5 0 -644 c0 -509 -3 -645 -12 -645 -56 0 -362 47 -485 75 -669 150 -1255 476 -1717 955 -483 502 -806 1104 -942 1755 -30 145 -64 398 -64 480 l0 59 65 -108 c36 -60 95 -151 131 -202z"></path>
        </g>
    </g>
</svg></svg></g></g><defs><clipPath id="SvgjsClipPath1130"><rect width="1000" height="1000" x="0" y="0" rx="400" ry="400"></rect></clipPath></defs></svg>